# xmcd
#
# Track frame offsets: 
#        150
#        17534
#        32722
#        50253
#        62439
#        77415
#        90952
#        109202
#        122980
#        133433
#
# Disc length: 2055 seconds
#
# Revision: 0
# Processed by: cddbd v1.5.2PL0 Copyright (c) Steve Scherf et al.
# Submitted via: ExactAudioCopyFreeDBPlugin 1.0
#
DISCID=7808050a
DTITLE=Emmylou Harris - Evangeline
DYEAR=1981
DGENRE=Country
TTITLE0=I Don't Have To Crawl
TTITLE1=How High The Moon
TTITLE2=Spanish Johnny
TTITLE3=Bad Moon Rising
TTITLE4=Evangeline
TTITLE5=Hot Burrito 2
TTITLE6=Millworker
TTITLE7=Oh Atlanta
TTITLE8=Mister Sandman
TTITLE9=Ashes By Now
EXTD=
EXTT0=
EXTT1=
EXTT2=
EXTT3=
EXTT4=
EXTT5=
EXTT6=
EXTT7=
EXTT8=
EXTT9=
PLAYORDER=
